<svg width="145" height="37" viewBox="0 0 145 37" fill="none" xmlns="http://www.w3.org/2000/svg">
<path d="M0.656479 36.7953L2.78655 26.9919C1.29022 24.318 0.5 21.2921 0.5 18.2056C0.5 13.3977 2.37188 8.87745 5.77139 5.47794C9.17286 2.07647 13.6932 0.20459 18.501 0.20459C23.3088 0.20459 27.8291 2.07647 31.2286 5.47598C34.6281 8.87549 36.5 13.3958 36.5 18.2036C36.5 23.0114 34.6281 27.5317 31.2286 30.9312C27.8291 34.3307 23.3088 36.2026 18.501 36.2026C15.5416 36.2026 12.6271 35.475 10.0335 34.0902L0.656479 36.7953ZM10.3856 31.0975L10.898 31.3929C13.1983 32.721 15.8271 33.4232 18.499 33.4232C26.8922 33.4232 33.7205 26.5948 33.7205 18.2017C33.7205 9.8085 26.8922 2.98405 18.501 2.98405C10.1098 2.98405 3.27946 9.81241 3.27946 18.2056C3.27946 20.9753 4.03056 23.6863 5.45061 26.0452L5.73619 26.5185L4.36308 32.8364L10.3875 31.0995L10.3856 31.0975Z" fill="#1D2931"/>
<path d="M23.5085 20.3141C23.2132 20.1674 22.8552 20.2495 22.6557 20.5116C22.1667 21.1532 21.4684 22.2133 21.2513 22.45C20.9442 22.7864 20.4004 22.5106 20.4004 22.5106C20.4004 22.5106 16.3202 21.1884 14.1237 17.0417C13.9828 16.7757 14.1237 16.5644 14.1237 16.5644L15.4694 14.8608C15.4694 14.8608 15.7276 14.4167 15.53 13.9649C15.3325 13.5131 13.8557 10.139 13.8557 10.139C13.8557 10.139 13.6386 9.74976 13.2885 9.74976H12.0327C12.0327 9.74976 11.0097 9.75758 9.82049 11.8427C7.89188 16.3258 13.1985 21.4075 13.1985 21.4075C13.1985 21.4075 17.1183 26.0138 22.554 26.7493C25.5349 27.1522 26.9471 25.2627 26.9471 25.2627C27.3051 24.9341 28.285 22.4754 27.3364 22.1253C26.6166 21.8593 24.4924 20.8089 23.5105 20.318L23.5085 20.3141Z" fill="#1D2931"/>
<path d="M72.4349 13.3L69.5709 21.86L66.7389 13.3H64.8189L61.9229 21.812L59.1389 13.3H56.9789L60.6909 24.5H62.9149L65.7309 16.212L68.4989 24.5H70.7069L74.4189 13.3H72.4349ZM81.0038 15.86C79.8198 15.86 78.8118 16.244 78.1558 16.948V12.628H76.1558V24.5H78.1558V20.18C78.1558 18.468 79.1158 17.604 80.5398 17.604C81.8198 17.604 82.5718 18.34 82.5718 19.86V24.5H84.5718V19.604C84.5718 17.028 83.0518 15.86 81.0038 15.86ZM90.3729 15.86C88.9969 15.86 87.6689 16.212 86.7569 16.916L87.5409 18.372C88.1809 17.844 89.1729 17.524 90.1329 17.524C91.5569 17.524 92.2609 18.212 92.2609 19.38V19.508H90.0529C87.4609 19.508 86.5009 20.628 86.5009 22.052C86.5009 23.54 87.7329 24.612 89.6849 24.612C90.9649 24.612 91.8929 24.196 92.3729 23.46V24.5H94.2609V19.492C94.2609 17.028 92.8369 15.86 90.3729 15.86ZM90.1009 23.156C89.0769 23.156 88.4689 22.692 88.4689 21.972C88.4689 21.348 88.8369 20.836 90.1969 20.836H92.2609V21.828C91.9249 22.708 91.0769 23.156 90.1009 23.156ZM101.404 22.612C101.1 22.852 100.7 22.964 100.284 22.964C99.5156 22.964 99.0996 22.516 99.0996 21.684V17.62H101.388V16.02H99.0996V14.068H97.0996V16.02H95.6916V17.62H97.0996V21.732C97.0996 23.62 98.1716 24.612 100.044 24.612C100.764 24.612 101.484 24.42 101.964 24.036L101.404 22.612ZM106.249 24.612C108.649 24.612 110.121 23.572 110.121 21.972C110.121 18.628 104.841 20.164 104.841 18.436C104.841 17.876 105.417 17.476 106.633 17.476C107.449 17.476 108.265 17.636 109.081 18.116L109.849 16.596C109.081 16.132 107.785 15.86 106.649 15.86C104.345 15.86 102.889 16.916 102.889 18.532C102.889 21.94 108.169 20.404 108.169 22.036C108.169 22.628 107.641 22.98 106.377 22.98C105.305 22.98 104.153 22.628 103.401 22.132L102.633 23.652C103.401 24.196 104.825 24.612 106.249 24.612ZM120.419 24.5H122.595L117.539 13.3H115.491L110.451 24.5H112.595L113.699 21.908H119.299L120.419 24.5ZM114.403 20.276L116.499 15.38L118.611 20.276H114.403ZM128.564 15.86C127.396 15.86 126.404 16.26 125.732 17.076V15.956H123.828V27.604H125.828V23.46C126.516 24.244 127.476 24.612 128.564 24.612C131.06 24.612 132.9 22.884 132.9 20.228C132.9 17.588 131.06 15.86 128.564 15.86ZM128.34 22.9C126.9 22.9 125.796 21.86 125.796 20.228C125.796 18.596 126.9 17.556 128.34 17.556C129.78 17.556 130.868 18.596 130.868 20.228C130.868 21.86 129.78 22.9 128.34 22.9ZM139.532 15.86C138.364 15.86 137.372 16.26 136.7 17.076V15.956H134.796V27.604H136.796V23.46C137.484 24.244 138.444 24.612 139.532 24.612C142.028 24.612 143.868 22.884 143.868 20.228C143.868 17.588 142.028 15.86 139.532 15.86ZM139.308 22.9C137.868 22.9 136.764 21.86 136.764 20.228C136.764 18.596 137.868 17.556 139.308 17.556C140.748 17.556 141.836 18.596 141.836 20.228C141.836 21.86 140.748 22.9 139.308 22.9Z" fill="#1D2931"/>
</svg>
