<svg width="29" height="31" viewBox="0 0 29 31" fill="none" xmlns="http://www.w3.org/2000/svg">
<path d="M0.126053 30.2378L1.84195 22.3406C0.636566 20.1867 0 17.7491 0 15.2628C0 11.3898 1.50791 7.74843 4.2464 5.00994C6.98647 2.26987 10.6278 0.761963 14.5008 0.761963C18.3738 0.761963 22.0151 2.26987 24.7536 5.00836C27.4921 7.74686 29 11.3882 29 15.2612C29 19.1341 27.4921 22.7755 24.7536 25.514C22.0151 28.2525 18.3738 29.7604 14.5008 29.7604C12.1168 29.7604 9.76908 29.1742 7.67976 28.0587L0.126053 30.2378ZM7.96338 25.6479L8.3762 25.8858C10.2292 26.9557 12.3469 27.5214 14.4992 27.5214C21.2604 27.5214 26.761 22.0208 26.761 15.2596C26.761 8.49845 21.2604 3.00097 14.5008 3.00097C7.74121 3.00097 2.23901 8.5016 2.23901 15.2628C2.23901 17.4939 2.84406 19.6777 3.98799 21.578L4.21804 21.9593L3.11193 27.0487L7.96495 25.6495L7.96338 25.6479Z" fill="#1D2931"/>
<path d="M18.5344 16.9613C18.2965 16.8431 18.0081 16.9093 17.8474 17.1204C17.4535 17.6373 16.891 18.4913 16.7161 18.6819C16.4687 18.9529 16.0307 18.7308 16.0307 18.7308C16.0307 18.7308 12.7439 17.6656 10.9744 14.3252C10.861 14.1109 10.9744 13.9408 10.9744 13.9408L12.0585 12.5684C12.0585 12.5684 12.2664 12.2107 12.1073 11.8467C11.9482 11.4827 10.7585 8.76473 10.7585 8.76473C10.7585 8.76473 10.5836 8.45117 10.3016 8.45117H9.29002C9.29002 8.45117 8.46596 8.45747 7.50796 10.1371C5.95436 13.7485 10.2291 17.8421 10.2291 17.8421C10.2291 17.8421 13.3867 21.5528 17.7655 22.1452C20.1668 22.4698 21.3044 20.9477 21.3044 20.9477C21.5928 20.683 22.3822 18.7024 21.618 18.4204C21.0381 18.2061 19.327 17.3599 18.536 16.9645L18.5344 16.9613Z" fill="#1D2931"/>
</svg>
